<svg xmlns="http://www.w3.org/2000/svg" fill="none" viewBox="0 0 14 14"><g id="bus--transportation-travel-bus-transit-transport-motorcoach-public"><path id="Subtract" fill="#339933" fill-rule="evenodd" d="M3.645.4C4.694.266 5.835.122 7 .122S9.306.267 10.355.4c.186.024.37.047.55.068.825.1 1.478.76 1.561 1.592l.06.586c.12 1.158.25 2.403.25 3.676 0 1.274-.13 2.519-.25 3.676l-.06.586a1.786 1.786 0 0 1-1.561 1.592l-.03.004v.968a.75.75 0 0 1-1.5 0v-.784c-.765.087-1.564.156-2.375.156-.81 0-1.61-.07-2.374-.156v.784a.75.75 0 0 1-1.5 0l0-.968-.03-.004a1.786 1.786 0 0 1-1.562-1.592l-.06-.586c-.12-1.157-.25-2.402-.25-3.676 0-1.273.13-2.518.25-3.676l.06-.586A1.786 1.786 0 0 1 3.095.467c.18-.021.363-.044.55-.068Zm.205 1.485-.574.071a.286.286 0 0 0-.25.253c-.02.201-.04.403-.062.604-.12 1.16-.24 2.319-.24 3.508 0 .206.004.411.01.615h8.531c.007-.204.01-.409.01-.615 0-1.19-.12-2.348-.24-3.508l-.061-.604a.286.286 0 0 0-.25-.253l-.574-.07C9.098 1.752 8.063 1.622 7 1.622c-1.063 0-2.098.13-3.15.262Zm.893 8.17a.625.625 0 0 0 0-1.25h-.747a.625.625 0 1 0 0 1.25h.747Zm5.886-.625c0 .345-.28.625-.625.625h-.747a.625.625 0 0 1 0-1.25h.747c.345 0 .625.28.625.625Z" clip-rule="evenodd"></path></g></svg>