<svg xmlns="http://www.w3.org/2000/svg" fill="none" viewBox="0 0 14 14"><g id="disability-slope--sign-disable-wheelchair"><path id="Union" fill="#339933" fill-rule="evenodd" d="M5.918 1.455c.279 1.053-.158 1.803-1.212 2.081-1.053.278-1.803-.158-2.081-1.212S2.783.521 3.837.243C4.89-.036 5.64.4 5.918 1.455Zm.98 3.246 1.123 1.284c.805-.21 1.599-.206 2.324.187.849.461 1.423 1.361 1.85 2.548a.75.75 0 0 1-1.412.507c-.38-1.058-.786-1.537-1.153-1.736-.342-.186-.821-.219-1.6.06l-1.366.492a1.595 1.595 0 0 1-2.04-.961l-.31-.861A1.525 1.525 0 0 1 6.898 4.7ZM2.923 6.51a.688.688 0 0 1-.188.955 2.064 2.064 0 1 0 3.141 2.266.688.688 0 0 1 1.327.368 3.442 3.442 0 1 1-5.235-3.776.688.688 0 0 1 .955.187Zm4.71 6.514a.5.5 0 0 0 .367.84h5.5a.5.5 0 0 0 .5-.5v-2.833a.483.483 0 0 0-.52-.488c-2.765.247-4.47 1.5-5.846 2.98Z" clip-rule="evenodd"></path></g></svg>