<svg xmlns="http://www.w3.org/2000/svg" fill="none" viewBox="0 0 48 48" height="48" width="48"><g id="instagram"><path id="Union" fill="#339933" d="M24 46.5c-4.722 0 -8.545 -0.113 -11.543 -0.264 -5.89 -0.297 -10.396 -4.803 -10.693 -10.693A231.72 231.72 0 0 1 1.5 24c0 -4.722 0.113 -8.545 0.264 -11.543 0.297 -5.89 4.803 -10.396 10.693 -10.693C15.455 1.614 19.277 1.5 24 1.5c4.722 0 8.545 0.113 11.543 0.264 5.89 0.297 10.396 4.803 10.693 10.693 0.15 2.998 0.264 6.82 0.264 11.543 0 4.722 -0.113 8.545 -0.264 11.543 -0.297 5.89 -4.803 10.396 -10.693 10.693 -2.998 0.15 -6.82 0.264 -11.543 0.264Z" stroke-width="1"></path><path id="Ellipse 308 (Stroke)" fill="#f5fff5" fill-rule="evenodd" d="M24 16a8 8 0 1 0 0 16 8 8 0 0 0 0 -16Zm-12 8c0 -6.627 5.373 -12 12 -12s12 5.373 12 12 -5.373 12 -12 12 -12 -5.373 -12 -12Z" clip-rule="evenodd" stroke-width="1"></path><path id="Vector 1499 (Stroke)" fill="#f5fff5" fill-rule="evenodd" d="M35 10a2 2 0 0 1 2 -2h1a2 2 0 1 1 0 4h-1a2 2 0 0 1 -2 -2Z" clip-rule="evenodd" stroke-width="1"></path></g></svg>