<svg xmlns="http://www.w3.org/2000/svg" fill="none" viewBox="0 0 14 14"><g id="parking-sign--discount-coupon-parking-price-prices-hotel"><path id="Subtract" fill="#339933" fill-rule="evenodd" d="M3.657.475C4.731.355 5.852.25 7 .25c1.148 0 2.269.105 3.343.225a3.632 3.632 0 0 1 3.194 3.203c.115 1.069.213 2.182.213 3.322 0 1.14-.098 2.253-.213 3.322a3.632 3.632 0 0 1-3.194 3.203c-1.074.12-2.195.225-3.343.225-1.148 0-2.269-.105-3.343-.225a3.632 3.632 0 0 1-3.194-3.203C.348 9.253.25 8.14.25 7c0-1.14.098-2.253.213-3.322A3.632 3.632 0 0 1 3.657.475ZM5.5 3.465a.625.625 0 0 0-.625.625v6a.625.625 0 1 0 1.25 0V8.215H8a2.125 2.125 0 0 0 2.125-2.125v-.5A2.125 2.125 0 0 0 8 3.465H5.5Zm2.5 3.5H6.125v-2.25H8c.483 0 .875.392.875.875v.5A.875.875 0 0 1 8 6.965Z" clip-rule="evenodd"></path></g></svg>