<svg xmlns="http://www.w3.org/2000/svg" fill="none" viewBox="0 0 14 14"><g id="toilet-sign-man-woman-2--toilet-sign-restroom-bathroom-user-human-person"><path id="Union" fill="#339933" fill-rule="evenodd" d="M10.846.42c-.707 0-1.33.2-1.776.646-.446.446-.647 1.069-.647 1.776 0 .708.2 1.331.647 1.777.445.446 1.069.646 1.776.646.708 0 1.33-.2 1.777-.646.446-.446.646-1.07.646-1.777 0-.707-.2-1.33-.646-1.776-.446-.446-1.07-.647-1.777-.647ZM3.154.472c-.708 0-1.33.2-1.777.646-.446.446-.646 1.07-.646 1.777 0 .707.2 1.33.646 1.777.446.446 1.07.646 1.777.646.707 0 1.33-.2 1.776-.646.446-.446.647-1.07.647-1.777 0-.707-.2-1.33-.647-1.777C4.484.673 3.861.473 3.154.473ZM5.702 6.52c-.94-.284-1.714-.443-2.515-.446-.8-.003-1.596.15-2.581.446A.5.5 0 0 0 .25 7v.045c0 1.457 0 3.07.316 4.32.16.637.415 1.233.837 1.674.438.457 1.022.711 1.75.711.73 0 1.314-.254 1.752-.711.422-.441.676-1.037.837-1.674.316-1.25.316-2.863.316-4.32l0-.045a.5.5 0 0 0-.356-.479Zm7.672 6.839c-.961.246-1.739.373-2.529.372-.79-.001-1.566-.132-2.524-.372a.5.5 0 0 1-.379-.485l0-.042c0-1.46 0-3.098.315-4.373.16-.649.413-1.257.833-1.708.437-.468 1.022-.733 1.756-.733s1.32.265 1.756.733c.42.451.673 1.06.833 1.708.315 1.275.315 2.913.315 4.373v.042a.5.5 0 0 1-.376.485Z" clip-rule="evenodd"></path></g></svg>