<svg xmlns="http://www.w3.org/2000/svg" fill="none" viewBox="0 0 14 14"><g id="sink--wash-clean-toilet-bathroom-water"><path id="Union" fill="#339933" fill-rule="evenodd" d="M4.009.805A2.75 2.75 0 0 1 8.703 2.75a.75.75 0 1 1-1.5 0 1.25 1.25 0 1 0-2.5 0v3.767a.25.25 0 0 1-.25.25h-1a.25.25 0 0 1-.25-.25V2.75c0-.73.29-1.429.806-1.945ZM8.703 5.5a.75.75 0 1 0-1.5 0V6a.75.75 0 0 0 1.5 0v-.5ZM.25 10.52A2.52 2.52 0 0 1 2.77 8h8.478a2.502 2.502 0 0 1 2.502 2.502c0 .955-.545 1.853-1.448 2.239-1.905.813-3.607 1.25-5.324 1.259-1.72.01-3.416-.409-5.311-1.25C.777 12.356.25 11.462.25 10.52Z" clip-rule="evenodd"></path></g></svg>