<svg xmlns="http://www.w3.org/2000/svg" fill="none" viewBox="0 0 14 14"><g id="wifi-router--wireless-wifi-internet-server-network-connection"><path id="Union" fill="#339933" fill-rule="evenodd" d="M9.541 2.634a3.591 3.591 0 0 0-5.079 0 .75.75 0 0 1-1.06-1.06 5.091 5.091 0 0 1 7.2 0 .75.75 0 1 1-1.06 1.06Zm-7.82-.174a.75.75 0 1 0-1.442.416l1.344 4.666C.65 7.86 0 8.788 0 9.83v1.338a1.5 1.5 0 0 0 1.5 1.5h.75v.5a.75.75 0 0 0 1.5 0v-.5h6.5v.5a.75.75 0 0 0 1.5 0v-.5h.75a1.5 1.5 0 0 0 1.5-1.5V9.836c0-1.043-.651-1.972-1.624-2.29l1.345-4.67a.75.75 0 0 0-1.442-.416l-1.405 4.88a44.343 44.343 0 0 0-7.749-.003L1.721 2.46Zm.404 7.708c0-.345.28-.625.625-.625h.5a.625.625 0 1 1 0 1.25h-.5a.625.625 0 0 1-.625-.625ZM6 9.543a.625.625 0 1 0 0 1.25h.5a.625.625 0 1 0 0-1.25H6Zm.106-5.167a1.267 1.267 0 0 1 1.792 0 .75.75 0 0 0 1.06-1.06 2.767 2.767 0 0 0-3.913 0 .75.75 0 1 0 1.061 1.06Zm.196 1.317a.7.7 0 1 0 1.4 0 .7.7 0 0 0-1.4 0Z" clip-rule="evenodd"></path></g></svg>